#!OML:ASF H:\Pregnant\Project 1\Capture day 1\Session 1\femalepreg.ASF
:FULLY-SPECIFIED
:DEGREES
2466
root 2.82884 15.6325 25.3 -1208.82 -97.6096 1232.11
lowerback -13.3179 -2.02841 -9.70702
upperback -7.06866 -1.92737 -1.3376
thorax 0.184106 -0.900103 3.79188
lowerneck -25.5339 3.22722 3.78805
upperneck 23.0537 0.688999 7.42297
head 11.8417 1.60818 2.27637
rclavicle -1.59028e-015 -9.54166e-015
rhumerus -48.4538 4.45692 -81.2184
rradius 58.5521
rwrist -6.95782
rhand -4.25123 -15.4726
rfingers 7.12502
rthumb 21.5127 -44.298
lclavicle -1.59028e-015 -9.54166e-015
lhumerus -32.5264 -1.59677 69.3804
lradius 27.8795
lwrist 39.1711
lhand -29.0708 -5.63324
lfingers 7.12502
lthumb -2.42005 24.3328
rfemur -41.4045 13.482 27.7004
rtibia 41.6811
rfoot -20.8293 -16.9454
rtoes -1.00448
lfemur -38.0964 -9.77105 -15.7748
ltibia 30.527
lfoot -14.9258 -2.87394
ltoes -15.8878
2467
root 2.82741 15.623 25.3345 -1209.99 -97.3982 1233.28
lowerback -13.4082 -1.95533 -9.65387
upperback -7.11194 -1.8329 -1.39768
thorax 0.170887 -0.855449 3.71073
lowerneck -25.5154 3.27276 3.8654
upperneck 23.2187 0.742977 7.31185
head 11.9012 1.62819 2.23591
rclavicle 3.18055e-015 -6.36111e-015
rhumerus -48.5177 4.707 -81.3508
rradius 59.2781
rwrist -7.24059
rhand -4.33316 -15.7915
rfingers 7.12502
rthumb 21.434 -44.6258
lclavicle 3.18055e-015 -6.36111e-015
lhumerus -32.7566 -1.21005 69.2949
lradius 28.1622
lwrist 39.4583
lhand -28.9852 -5.55422
lfingers 7.12502
lthumb -2.3374 24.4127
rfemur -41.3327 13.4444 27.8114
rtibia 41.2973
rfoot -20.8938 -16.8901
rtoes -1.05252
lfemur -38.0051 -9.62824 -16.2611
ltibia 30.4717
lfoot -14.9667 -3.14996
ltoes -15.4428
2468
root 2.82481 15.6142 25.3677 -1211.32 -97.1759 1234.56
lowerback -13.4743 -1.87028 -9.60227
upperback -7.14513 -1.72371 -1.45651
thorax 0.153972 -0.803085 3.63438
lowerneck -25.4846 3.30979 3.92453
upperneck 23.381 0.792866 7.20382
head 11.9574 1.6448 2.1984
rclavicle 1.32192e-014 2.54444e-014
rhumerus -48.5725 4.91668 -81.4647
rradius 59.9764
rwrist -7.53236
rhand -4.46425 -16.1328
rfingers 7.12502
rthumb 21.3081 -44.9813
lclavicle 1.32192e-014 2.54444e-014
lhumerus -32.9993 -0.845799 69.2379
lradius 28.4548
lwrist 39.7679
lhand -28.8463 -5.44682
lfingers 7.12502
lthumb -2.20323 24.5216
rfemur -41.2028 13.518 27.8405
rtibia 40.9304
rfoot -20.9514 -17.0009
rtoes -1.04255
lfemur -37.8301 -9.45107 -16.7766
ltibia 30.3724
lfoot -15.009 -3.4613
ltoes -14.9789
2469
root 2.82176 15.6059 25.4009 -1212.74 -96.9381 1235.92
lowerback -13.5401 -1.78067 -9.53889
upperback -7.1777 -1.60982 -1.50883
thorax 0.137535 -0.748567 3.55904
lowerneck -25.4381 3.35166 3.97428
upperneck 23.5418 0.856284 7.09171
head 12.0097 1.6657 2.16272
rclavicle 1.81391e-014 3.49861e-014
rhumerus -48.6184 5.1473 -81.5814
rradius 60.6602
rwrist -7.84764
rhand -4.64089 -16.4928
rfingers 7.12502
rthumb 21.1384 -45.3605
lclavicle 1.81391e-014 3.49861e-014
lhumerus -33.2643 -0.468463 69.1995
lradius 28.7557
lwrist 40.086
lhand -28.6558 -5.31087
lfingers 7.12502
lthumb -2.01926 24.6593
rfemur -41.055 13.6781 27.786
rtibia 40.5816
rfoot -21.0056 -17.213
rtoes -0.908154
lfemur -37.6165 -9.2405 -17.3161
ltibia 30.2398
lfoot -15.044 -3.80025
ltoes -14.4985
2470
root 2.8183 15.5979 25.4341 -1214.21 -96.6858 1237.32
lowerback -13.6133 -1.68248 -9.45462
upperback -7.20942 -1.48615 -1.55696
thorax 0.125149 -0.689825 3.47775
lowerneck -25.3893 3.39952 4.03138
upperneck 23.7085 0.930388 6.96301
head 12.0639 1.68984 2.12148
rclavicle 3.34952e-014 0
rhumerus -48.655 5.39177 -81.7014
rradius 61.3308
rwrist -8.17862
rhand -4.85801 -16.8659
rfingers 7.12502
rthumb 20.9298 -45.7567
lclavicle 3.34952e-014 0
lhumerus -33.544 -0.0881151 69.1777
lradius 29.0628
lwrist 40.4119
lhand -28.4244 -5.15919
lfingers 7.12502
lthumb -1.79585 24.813
rfemur -40.8945 13.8151 27.6981
rtibia 40.2531
rfoot -21.0414 -17.4149
rtoes -0.776301
lfemur -37.3782 -8.99907 -17.8684
ltibia 30.0854
lfoot -15.08 -4.14437
ltoes -14.0521
2471
root 2.81469 15.5901 25.4675 -1215.79 -96.4208 1238.83
lowerback -13.6945 -1.57704 -9.35001
upperback -7.24333 -1.35481 -1.60125
thorax 0.114353 -0.627806 3.39019
lowerneck -25.3382 3.45246 4.08694
upperneck 23.8835 1.0155 6.82386
head 12.1209 1.7174 2.07857
rclavicle 8.24956e-015 -9.54166e-015
rhumerus -48.6727 5.61141 -81.808
rradius 61.9652
rwrist -8.47791
rhand -5.08885 -17.2243
rfingers 7.12502
rthumb 20.708 -46.1395
lclavicle 8.24956e-015 -9.54166e-015
lhumerus -33.838 0.294347 69.1764
lradius 29.3695
lwrist 40.7355
lhand -28.1476 -4.98095
lfingers 7.12502
lthumb -1.52842 24.9933
rfemur -40.733 13.8935 27.5828
rtibia 39.9518
rfoot -21.0488 -17.5497
rtoes -0.5781
lfemur -37.1287 -8.72804 -18.4388
ltibia 29.9158
lfoot -15.1181 -4.49593
ltoes -13.6595
2472
root 2.81096 15.582 25.5014 -1217.47 -96.1501 1240.44
lowerback -13.778 -1.46242 -9.2129
upperback -7.27993 -1.21532 -1.64312
thorax 0.101648 -0.562446 3.2883
lowerneck -25.283 3.5122 4.14946
upperneck 24.0672 1.11206 6.66994
head 12.1807 1.74872 2.03102
rclavicle 1.07344e-014 -4.29375e-014
rhumerus -48.6847 5.84628 -81.9237
rradius 62.5816
rwrist -8.78569
rhand -5.37714 -17.5892
rfingers 7.12502
rthumb 20.431 -46.5343
lclavicle 1.07344e-014 -4.29375e-014
lhumerus -34.1511 0.640548 69.205
lradius 29.6837
lwrist 41.0902
lhand -27.8483 -4.78201
lfingers 7.12502
lthumb -1.2394 25.1941
rfemur -40.5671 13.8914 27.4588
rtibia 39.6813
rfoot -21.0081 -17.5947
rtoes -0.211161
lfemur -36.8678 -8.44134 -19.0157
ltibia 29.7333
lfoot -15.1551 -4.84628
ltoes -13.3105
2473
root 2.80727 15.5739 25.5361 -1219.26 -95.8694 1242.15
lowerback -13.8611 -1.33644 -9.04462
upperback -7.32273 -1.06547 -1.67995
thorax 0.0818791 -0.49232 3.17593
lowerneck -25.221 3.57655 4.20935
upperneck 24.2628 1.22135 6.50032
head 12.2438 1.78334 1.98023
rclavicle 1.50579e-014 4.13472e-014
rhumerus -48.6899 6.08514 -82.0399
rradius 63.1719
rwrist -9.08217
rhand -5.71516 -17.9638
rfingers 7.12502
rthumb 20.1062 -46.9435
lclavicle 1.50579e-014 4.13472e-014
lhumerus -34.4823 0.979089 69.259
lradius 29.9934
lwrist 41.4393
lhand -27.5264 -4.55977
lfingers 7.12502
lthumb -0.928509 25.418
rfemur -40.4031 13.8303 27.3132
rtibia 39.4473
rfoot -20.9093 -17.5588
rtoes 0.574259
lfemur -36.5943 -8.15003 -19.598
ltibia 29.5325
lfoot -15.1805 -5.18451
ltoes -12.9661
2474
root 2.80351 15.566 25.5722 -1221.29 -95.5906 1244.1
lowerback -13.928 -1.2018 -8.83928
upperback -7.36656 -0.910429 -1.71636
thorax 0.0530232 -0.420169 3.04437
lowerneck -25.1473 3.64735 4.26817
upperneck 24.4657 1.34465 6.31962
head 12.3078 1.82234 1.92767
rclavicle 1.28216e-014 -1.43125e-014
rhumerus -48.6868 6.33623 -82.1632
rradius 63.7295
rwrist -9.37257
rhand -6.09963 -18.3263
rfingers 7.12502
rthumb 19.7366 -47.3443
lclavicle 1.28216e-014 -1.43125e-014
lhumerus -34.8273 1.32533 69.3272
lradius 30.2889
lwrist 41.7584
lhand -27.1867 -4.32978
lfingers 7.12502
lthumb -0.60042 25.6491
rfemur -40.2246 13.755 27.1242
rtibia 39.2526
rfoot -20.7567 -17.5141
rtoes 1.88726
lfemur -36.289 -7.86659 -20.1908
ltibia 29.3079
lfoot -15.1883 -5.51896
ltoes -12.6014
